<svg xmlns="http://www.w3.org/2000/svg" xmlns:xlink="http://www.w3.org/1999/xlink" version="1.1" width="256" height="256" viewBox="0 0 256 256" xml:space="preserve">
<desc>Created with Fabric.js 1.7.22</desc>
<defs>
</defs>
<g transform="translate(128 128) scale(0.72 0.72)" style="">
	<g style="stroke: none; stroke-width: 0; stroke-dasharray: none; stroke-linecap: butt; stroke-linejoin: miter; stroke-miterlimit: 10; fill: none; fill-rule: nonzero; opacity: 1;" transform="translate(-175.05 -175.05000000000004) scale(3.89 3.89)" >
	<path d="M 34.708 43.374 c 0.153 -0.131 0.334 -0.279 0.334 -0.279 s -0.283 0.029 -0.443 0.062 c -0.38 0.074 -0.938 0.445 -1.217 0.684 c -0.46 0.394 -0.966 1.034 -0.737 1.602 c 0.033 0.08 0.084 0.188 0.084 0.188 s 0.241 -0.362 0.443 -0.636 C 33.541 44.496 34.207 43.803 34.708 43.374 z" style="stroke: none; stroke-width: 1; stroke-dasharray: none; stroke-linecap: butt; stroke-linejoin: miter; stroke-miterlimit: 10; fill: rgb(3,7,30); fill-rule: nonzero; opacity: 1;" transform=" matrix(1 0 0 1 0 0) " stroke-linecap="round" />
	<path d="M 34.338 46.092 c -0.063 0.079 -0.112 0.151 -0.106 0.17 c 0.022 0.08 0.771 0.073 1.055 0.054 c 0.727 -0.05 1.407 -0.259 2.041 -0.611 c 0.621 -0.348 1.535 -1.026 1.441 -1.823 c -0.029 -0.258 -0.198 -0.453 -0.411 -0.544 c -0.277 -0.12 -0.422 -0.101 -0.776 0.005 c -0.257 0.075 -0.373 0.121 -0.616 0.26 c -0.713 0.414 -1.723 1.3 -2.272 2.008 C 34.567 45.777 34.439 45.964 34.338 46.092 z" style="stroke: none; stroke-width: 1; stroke-dasharray: none; stroke-linecap: butt; stroke-linejoin: miter; stroke-miterlimit: 10; fill: rgb(3,7,30); fill-rule: nonzero; opacity: 1;" transform=" matrix(1 0 0 1 0 0) " stroke-linecap="round" />
	<path d="M 66.923 51.826 c -0.649 0.718 -1.82 2.063 -2.763 3.89 c 0.989 -0.111 1.943 -0.648 2.232 -0.921 c 0.469 -0.416 1.562 -1.545 1.385 -3.047 C 67.777 51.747 67.678 50.975 66.923 51.826 z" style="stroke: none; stroke-width: 1; stroke-dasharray: none; stroke-linecap: butt; stroke-linejoin: miter; stroke-miterlimit: 10; fill: rgb(3,7,30); fill-rule: nonzero; opacity: 1;" transform=" matrix(1 0 0 1 0 0) " stroke-linecap="round" />
	<path d="M 17.061 53.337 c 0.005 -0.859 0.023 -1.71 0.023 -1.71 s -0.849 0.06 -1.433 0.125 c -0.743 0.08 -2.139 0.321 -2.945 0.609 c -0.242 0.087 -0.733 0.292 -0.775 0.541 c -0.045 0.258 0.115 0.459 0.293 0.667 c 0.103 0.121 0.685 0.681 0.848 0.817 c 0.684 0.571 2.071 1.452 3.093 1.88 c 0.351 0.145 0.932 0.353 0.932 0.353 S 17.053 54.965 17.061 53.337 z" style="stroke: none; stroke-width: 1; stroke-dasharray: none; stroke-linecap: butt; stroke-linejoin: miter; stroke-miterlimit: 10; fill: rgb(3,7,30); fill-rule: nonzero; opacity: 1;" transform=" matrix(1 0 0 1 0 0) " stroke-linecap="round" />
	<path d="M 77.286 0 H 12.714 C 5.704 0 0 5.704 0 12.714 v 64.572 C 0 84.297 5.704 90 12.714 90 h 64.572 C 84.297 90 90 84.297 90 77.286 V 12.714 C 90 5.704 84.297 0 77.286 0 z M 20.604 38.752 c 5.891 -8.846 15.754 -14.127 26.383 -14.127 c 6.429 0 12.618 1.913 17.897 5.531 c 5.157 3.534 9.121 8.454 11.465 14.224 c 0.043 0.106 0.031 0.227 -0.034 0.321 c -0.064 0.095 -0.171 0.152 -0.284 0.152 h -0.985 c -0.174 0 -0.331 -0.104 -0.399 -0.264 c -2.273 -5.367 -6.035 -9.934 -10.879 -13.208 c -4.964 -3.356 -10.767 -5.13 -16.781 -5.13 c -4.979 0 -9.911 1.247 -14.264 3.604 c -4.216 2.283 -7.873 5.588 -10.575 9.556 c -0.085 0.127 -0.228 0.203 -0.381 0.203 c -0.049 0 -0.098 -0.008 -0.148 -0.024 l -0.825 -0.278 c -0.11 -0.038 -0.195 -0.123 -0.234 -0.235 C 20.523 38.967 20.538 38.849 20.604 38.752 z M 32.558 53.68 c -0.036 0.255 -0.229 0.844 -0.261 0.916 c -0.155 0.358 -0.309 0.651 -0.471 0.944 c -0.278 0.501 -0.94 1.295 -1.333 1.634 c -1.461 1.262 -3.722 1.981 -5.661 2.218 c -1.316 0.159 -2.829 0.136 -4.223 -0.122 c -0.48 -0.087 -1.194 -0.252 -1.194 -0.252 s 0.002 0.286 -0.021 0.486 c -0.011 0.092 -0.08 0.333 -0.119 0.411 c -0.101 0.209 -0.268 0.318 -0.51 0.364 c -0.292 0.054 -0.602 0.072 -0.872 -0.043 c -0.443 -0.187 -0.602 -0.601 -0.68 -1.08 c -0.062 -0.383 -0.128 -1.048 -0.128 -1.048 s -0.332 -0.157 -0.608 -0.295 c -0.849 -0.419 -1.656 -0.926 -2.362 -1.447 c -0.196 -0.146 -1.036 -0.849 -1.221 -1.024 c -0.52 -0.494 -0.988 -0.985 -1.343 -1.615 c -0.277 -0.492 -0.356 -0.929 -0.146 -1.451 c 0.29 -0.727 1.332 -1.274 2.046 -1.586 c 0.524 -0.231 2.152 -0.763 2.828 -0.861 c 0.319 -0.046 0.815 -0.134 0.845 -0.154 c 0.012 -0.01 0.021 -0.018 0.03 -0.028 c 0.016 -0.022 0.042 -0.742 0.037 -1.005 c -0.007 -0.259 0.192 -1.959 0.255 -2.318 c 0.033 -0.194 0.18 -0.943 0.331 -1.139 c 0.098 -0.133 0.272 -0.122 0.414 -0.035 c 0.776 0.482 1.011 2.155 1.069 3.006 c 0.034 0.519 0.052 1.299 0.052 1.299 s 0.89 -0.026 1.437 -0.011 c 0.532 0.012 1.118 0.096 1.67 0.184 c 0.707 0.113 2.084 0.414 2.875 0.814 c 0.651 0.33 1.26 0.886 1.457 1.474 c 0.183 0.539 0.156 0.912 -0.123 1.399 c -0.314 0.549 -0.908 0.958 -1.51 0.992 c -0.179 0.01 -0.854 -0.079 -1.061 -0.24 c -0.081 -0.064 -0.077 -0.18 -0.018 -0.258 c 0.022 -0.028 0.338 -0.195 0.524 -0.293 c 0.093 -0.051 0.17 -0.105 0.243 -0.172 c 0.155 -0.136 0.294 -0.286 0.278 -0.462 c -0.021 -0.228 -0.263 -0.369 -0.493 -0.459 c -1.079 -0.429 -3.233 -0.784 -4.274 -0.846 c -0.407 -0.024 -0.987 -0.044 -0.987 -0.044 l 0.123 5.748 c 0 0 0.479 0.091 0.857 0.152 c 0.217 0.033 1.135 0.115 1.379 0.122 c 1.858 0.049 3.931 -0.117 5.636 -0.922 c 0.748 -0.352 1.435 -0.791 1.955 -1.384 c 0.685 -0.786 1.044 -1.86 0.949 -2.983 c -0.104 -1.226 -0.967 -2.682 -1.656 -3.568 c -1.821 -2.342 -4.942 -4.268 -7.688 -5.397 c -2.804 -1.152 -5.574 -1.815 -8.55 -1.926 c -0.767 -0.028 -2.439 0.01 -3.285 0.244 c -0.121 0.034 -0.242 0.075 -0.355 0.1 c -0.089 0.022 -0.228 0.08 -0.266 0.111 c -0.021 0.017 -0.042 0.041 -0.042 0.041 s 0.052 0.029 0.102 0.05 c 0.09 0.039 0.466 0.063 0.662 0.098 c 0.174 0.033 0.356 0.125 0.428 0.252 c 0.068 0.122 0.077 0.217 -0.005 0.319 c -0.192 0.233 -0.913 0.194 -1.23 0.143 c -0.33 -0.053 -0.741 -0.154 -0.816 -0.441 c -0.088 -0.338 0.073 -0.67 0.247 -0.977 c 0.349 -0.613 0.849 -0.932 1.58 -1.132 c 1.039 -0.286 2.352 -0.486 3.333 -0.523 c 2.221 -0.084 4.323 0.305 6.476 0.958 c 1.232 0.372 2.844 0.997 4.025 1.566 c 0.847 0.408 2.182 1.16 2.932 1.65 c 0.236 0.156 1.62 1.173 1.835 1.352 c 0.448 0.367 1.035 0.894 1.46 1.315 c 0.822 0.814 1.844 2.062 2.34 3.053 c 0.12 0.237 0.212 0.471 0.366 0.746 c 0.053 0.094 0.28 0.658 0.318 0.82 c 0.037 0.161 0.092 0.398 0.1 0.407 c 0.011 0.086 0.116 0.57 0.108 0.757 C 32.692 52.729 32.578 53.569 32.558 53.68 z M 33.2 48.083 c -0.044 0.074 -0.125 0.169 -0.179 0.208 c -0.189 0.139 -0.349 0.146 -0.532 -0.015 c -0.256 -0.226 -0.404 -0.577 -0.415 -0.917 c -0.005 -0.149 0.02 -0.313 -0.008 -0.438 c -0.047 -0.212 -0.258 -0.43 -0.372 -0.632 c -0.134 -0.238 -0.242 -0.654 -0.256 -0.922 c -0.046 -0.836 0.395 -1.607 0.968 -2.215 c 0.577 -0.615 1.331 -1.125 2.152 -1.473 c 0.776 -0.327 1.913 -0.549 2.765 -0.254 c 0.277 0.095 0.664 0.331 0.858 0.578 c 0.041 0.051 0.075 0.107 0.117 0.134 c 0.038 0.024 0.137 0.034 0.216 0.048 c 0.272 0.047 0.663 0.253 0.823 0.39 c 0.321 0.277 0.497 0.542 0.578 0.926 c 0.163 0.773 -0.282 1.621 -0.789 2.137 c -0.868 0.888 -1.726 1.513 -2.836 1.948 c -0.488 0.191 -1.248 0.369 -1.801 0.319 c -0.172 -0.014 -0.348 -0.06 -0.516 -0.071 c -0.085 -0.007 -0.398 -0.088 -0.431 -0.111 c -0.041 -0.032 -0.095 -0.06 -0.104 -0.049 C 33.362 47.754 33.283 47.945 33.2 48.083 z M 35.583 57.489 c -0.038 0.169 -0.151 0.365 -0.312 0.465 c -0.185 0.118 -0.606 0.127 -0.837 0.08 c -0.57 -0.118 -0.755 -0.484 -0.837 -1.048 c -0.193 -1.345 -0.1 -3.986 0.014 -5.1 c 0.038 -0.368 0.177 -1.547 0.369 -2.042 c 0.066 -0.167 0.205 -0.503 0.449 -0.455 c 0.034 0.006 0.086 0.021 0.131 0.038 c 0.389 0.148 0.55 0.509 0.646 0.904 c 0.222 0.919 0.317 2.953 0.354 3.749 c 0.027 0.597 0.042 1.185 0.067 1.776 C 35.648 56.355 35.688 57.02 35.583 57.489 z M 38.339 51.858 c 0.04 0.01 0.048 0.011 0.09 0.016 l 3.121 0.368 c 0.041 0.006 0.05 0.007 0.091 0.013 c 0.675 0.092 1.339 0.214 1.847 0.441 c 0.471 0.208 0.747 0.471 0.999 0.94 c 0.383 0.711 0.408 1.707 0.062 2.461 c -0.259 0.561 -0.826 1.032 -1.345 1.281 c -0.538 0.261 -1.069 0.385 -1.677 0.455 c -1.064 0.117 -2.213 -0.103 -3.17 -0.566 c -0.566 -0.277 -1.258 -0.753 -1.607 -1.367 c -0.257 -0.45 -0.248 -1.034 0.064 -1.462 c 0.498 -0.681 1.563 -0.831 2.366 -0.802 c 0.612 0.024 1.714 0.213 2.295 0.42 c 0.161 0.058 0.755 0.29 0.859 0.396 c 0.073 0.074 0.12 0.181 0.088 0.28 c -0.133 0.406 -1.119 0.62 -1.404 0.663 c -0.763 0.117 -1.159 -0.172 -2.026 -0.514 c -0.215 -0.084 -0.502 -0.178 -0.721 -0.198 c -0.394 -0.038 -0.869 0.073 -0.944 0.503 c -0.037 0.221 0.222 0.429 0.42 0.516 c 0.465 0.2 0.843 0.272 1.301 0.278 c 1.352 0.022 2.872 -0.2 3.978 -0.984 c 0.151 -0.108 0.3 -0.266 0.302 -0.466 c 0.005 -0.403 -0.701 -0.649 -0.701 -0.649 c -0.745 -0.311 -2.122 -0.462 -2.831 -0.52 c -0.744 -0.064 -1.915 -0.161 -2.197 -0.202 c -0.289 -0.041 -0.604 -0.1 -0.855 -0.212 c -0.252 -0.114 -0.498 -0.368 -0.571 -0.65 c -0.13 -0.508 0.036 -1.131 0.318 -1.537 c 0.739 -1.063 2.471 -1.466 3.764 -1.626 c 1.252 -0.156 3.276 -0.154 4.505 0.499 c 0.19 0.102 0.287 0.196 0.247 0.399 c -0.08 0.381 -0.366 0.627 -0.714 0.734 c -0.364 0.116 -1.117 0.161 -1.448 0.182 c -1.482 0.083 -3.274 0.039 -4.686 0.425 c -0.111 0.032 -0.302 0.083 -0.364 0.152 C 37.572 51.762 38.203 51.831 38.339 51.858 z M 52.475 56.257 c -0.276 0.649 -1.004 1.341 -1.909 0.91 c -0.893 -0.431 -2.316 -3.343 -2.316 -3.343 s -0.54 -1.086 -0.644 -1.058 c 0 0 -0.117 -0.212 -0.188 0.974 c -0.074 1.182 0.014 3.485 -0.457 3.848 c -0.446 0.364 -0.987 0.219 -1.267 -0.206 c -0.255 -0.419 -0.361 -1.413 -0.222 -3.159 c 0.163 -1.75 0.57 -3.612 1.089 -4.191 c 0.519 -0.576 0.935 -0.158 1.097 -0.006 c 0 0 0.694 0.629 1.838 2.475 l 0.202 0.342 c 0 0 1.04 1.744 1.148 1.74 c 0 0 0.085 0.08 0.161 0.023 c 0.109 -0.031 0.065 -0.591 0.065 -0.591 s -0.216 -1.901 -1.164 -5.119 c 0 0 -0.143 -0.401 -0.046 -0.777 c 0.096 -0.38 0.477 -0.202 0.477 -0.202 s 1.47 0.739 2.184 3.132 C 53.232 53.444 52.755 55.603 52.475 56.257 z M 55.168 58.403 c 0 0 -0.861 0.055 -1.588 -1.106 c -0.677 -1.107 0.257 -3.202 0.257 -3.202 s -0.428 -0.978 -0.118 -1.31 c 0 0 0.185 -0.168 0.723 -0.205 l 0.659 -1.364 c 0 0 -0.751 0.052 -1.197 -0.501 c -0.416 -0.524 -0.451 -0.765 -0.132 -0.909 c 0.341 -0.168 3.468 -0.739 5.619 -0.667 c 0 0 0.748 -0.073 1.396 1.224 c 0 0 0.314 0.525 -0.22 0.651 c -1.04 0.24 -3.776 0.373 -3.776 0.373 l -0.345 1.08 c 0 0 1.367 -0.117 2.361 -0.013 c 0 0 0.322 -0.037 0.36 0.366 c 0.013 0.376 -0.032 0.78 -0.032 0.78 s -0.021 0.244 -0.367 0.306 c -0.375 0.063 -2.946 0.162 -2.946 0.162 l -0.416 1.408 c 0 0 -0.155 0.326 0.192 0.233 c 0.322 -0.086 3.016 -0.592 3.367 -0.519 c 0.376 0.093 0.792 0.595 0.672 1.052 C 59.495 56.808 56.806 58.523 55.168 58.403 z M 68.296 54.823 c -0.669 1.168 -2.558 3.612 -5.069 3.035 c -0.829 2.01 -1.525 4.044 -1.924 7.087 c 0 0 -0.088 0.591 -0.579 0.386 c -0.487 -0.17 -1.289 -0.98 -1.452 -2.101 c -0.175 -1.472 0.481 -3.959 1.82 -6.812 c -0.391 -0.635 -0.657 -1.542 -0.429 -2.833 c 0 0 0.336 -2.398 2.745 -4.56 c 0 0 0.289 -0.249 0.456 -0.173 c 0.184 0.077 0.099 0.858 -0.047 1.237 c -0.152 0.377 -1.224 2.234 -1.224 2.234 s -0.669 1.254 -0.481 2.243 c 1.263 -1.942 4.135 -5.859 5.915 -4.624 c 0.598 0.428 0.874 1.358 0.874 2.361 C 68.901 53.186 68.689 54.122 68.296 54.823 z M 82.5 52.902 c 0 0.206 -0.168 0.374 -0.374 0.374 h -4.538 c 0.003 0.236 0.005 0.448 0.005 0.646 c 0 1.406 -0.058 2.556 -0.192 3.846 c -0.019 0.191 -0.178 0.336 -0.37 0.336 h -0.984 c -0.097 0 -0.191 -0.042 -0.256 -0.115 c -0.067 -0.073 -0.1 -0.171 -0.089 -0.27 c 0.139 -1.282 0.198 -2.418 0.198 -3.796 c 0 -0.198 -0.002 -0.41 -0.005 -0.646 h -4.49 c -0.206 0 -0.374 -0.168 -0.374 -0.374 v -0.957 c 0 -0.205 0.168 -0.372 0.374 -0.372 h 4.427 c -0.094 -1.553 -0.285 -3.047 -0.587 -4.565 c -0.018 -0.092 0.006 -0.185 0.066 -0.259 c 0.06 -0.072 0.147 -0.114 0.24 -0.114 h 1.061 c 0.164 0 0.306 0.118 0.336 0.28 c 0.297 1.569 0.486 3.092 0.577 4.656 h 4.601 c 0.206 0 0.374 0.168 0.374 0.374 V 52.902 z" style="stroke: none; stroke-width: 1; stroke-dasharray: none; stroke-linecap: butt; stroke-linejoin: miter; stroke-miterlimit: 10; fill: rgb(3,7,30); fill-rule: nonzero; opacity: 1;" transform=" matrix(1 0 0 1 0 0) " stroke-linecap="round" />
</g>
</g>
</svg>